<?xml version="1.0" standalone="no"?>
<!DOCTYPE svg PUBLIC "-//W3C//DTD SVG 20010904//EN"
 "http://www.w3.org/TR/2001/REC-SVG-20010904/DTD/svg10.dtd">
<svg version="1.0" xmlns="http://www.w3.org/2000/svg"
 width="247.000000pt" height="247.000000pt" viewBox="0 0 247.000000 247.000000"
 preserveAspectRatio="xMidYMid meet">
<metadata>
Created by potrace 1.14, written by Peter Selinger 2001-2017
</metadata>
<g transform="translate(0.000000,247.000000) scale(0.100000,-0.100000)"
fill="#000000" stroke="none">
<path d="M1160 2463 c-62 -8 -293 -84 -365 -121 -273 -137 -473 -399 -535
-702 -25 -121 -26 -285 -4 -401 71 -374 325 -664 689 -785 44 -15 89 -30 101
-34 l21 -8 -18 -137 c-20 -150 -14 -191 30 -214 11 -6 90 -21 175 -33 222 -31
233 -23 261 179 17 129 19 209 5 218 -21 13 -8 31 32 43 216 68 444 269 558
491 163 320 143 718 -52 1028 -58 92 -190 229 -278 289 -165 113 -475 206
-620 187z m-114 -238 c20 -53 10 -74 -24 -56 -36 19 -73 12 -155 -31 -92 -50
-208 -152 -262 -233 -179 -271 -200 -592 -56 -884 46 -93 80 -131 118 -131 19
0 39 -10 58 -30 57 -59 122 -63 260 -15 130 46 148 44 55 -5 -83 -43 -155
-113 -165 -160 -4 -17 -10 -30 -14 -30 -19 0 -151 97 -209 153 -109 106 -187
239 -235 401 -18 59 -22 96 -21 226 0 139 3 164 27 243 90 292 287 494 577
590 26 9 28 8 46 -38z m567 -26 c71 -36 180 -123 238 -190 95 -111 144 -199
186 -336 24 -79 26 -104 27 -243 0 -141 -3 -163 -27 -243 -67 -218 -202 -396
-385 -506 -72 -43 -235 -106 -256 -98 -6 3 -17 21 -25 42 -11 30 -11 42 0 61
15 29 23 30 49 4 37 -37 65 -36 153 8 200 99 342 276 409 507 20 68 23 103 23
235 0 176 -12 232 -75 367 -58 124 -154 247 -226 289 -39 23 -48 25 -76 15
-18 -6 -45 -23 -59 -37 -28 -26 -243 -108 -263 -100 -6 2 2 9 19 15 111 44
186 109 212 182 10 27 21 49 26 49 4 0 27 -10 50 -21z m-609 -94 c5 -14 -18
-45 -34 -45 -19 0 -136 -75 -178 -114 -135 -124 -208 -290 -219 -497 -8 -156
22 -281 101 -417 21 -34 34 -67 31 -72 -14 -23 -46 -8 -72 32 -78 124 -114
256 -115 418 0 145 24 250 88 378 58 116 156 219 271 287 80 47 117 56 127 30z
m738 -124 c106 -114 163 -236 194 -413 19 -110 15 -271 -10 -363 -27 -100 -93
-219 -163 -295 -94 -102 -256 -203 -298 -186 -30 11 -83 158 -67 182 4 6 32
24 62 40 87 46 179 140 226 230 93 177 96 362 8 541 -24 47 -34 79 -29 92 9
30 19 26 48 -18 67 -101 91 -191 91 -341 0 -106 -3 -137 -24 -200 -47 -144
-156 -272 -288 -338 -50 -25 -53 -29 -48 -56 4 -16 13 -38 22 -47 20 -22 39
-15 136 48 130 85 225 218 269 378 19 71 21 96 16 230 -5 162 -17 216 -69 320
-40 81 -97 154 -146 190 -42 31 -51 52 -30 73 16 16 36 3 100 -67z m-783 -28
c0 -22 -13 -38 -62 -74 -145 -107 -211 -252 -211 -459 0 -77 6 -127 22 -188
18 -65 20 -87 11 -98 -18 -22 -25 -17 -43 29 -100 262 -31 567 168 747 80 73
116 86 115 43z m-10 -112 c-53 -40 -115 -109 -143 -161 -54 -98 -72 -283 -41
-403 18 -68 18 -77 5 -77 -11 0 -26 52 -41 149 -19 126 13 277 81 379 43 65
146 156 163 145 6 -4 -3 -17 -24 -32z m50 -60 c-53 -33 -117 -110 -140 -167
-21 -53 -24 -75 -24 -203 0 -99 -4 -146 -12 -148 -6 -2 -16 17 -22 47 -21 97
-10 230 26 315 40 96 151 207 181 183 12 -11 11 -15 -9 -27z m678 -293 c11
-170 -35 -298 -148 -410 -37 -38 -74 -68 -82 -68 -8 0 -22 12 -32 26 -16 26
-16 27 0 37 38 21 95 81 120 124 50 90 70 243 44 337 -10 37 -9 40 27 77 l39
39 13 -37 c8 -21 16 -77 19 -125z m-419 34 c25 -39 24 -172 -2 -201 -27 -30
-70 -27 -95 5 -17 22 -21 41 -21 101 0 81 10 110 43 122 30 11 56 2 75 -27z
m57 -1127 c55 -8 105 -21 112 -28 11 -10 10 -33 -3 -122 -9 -61 -22 -116 -29
-124 -11 -11 -32 -11 -131 3 -65 9 -122 20 -127 25 -10 10 9 198 23 237 11 29
20 29 155 9z"/>
<path d="M1320 360 c0 -5 -29 -8 -67 -7 -66 2 -68 1 -68 -23 0 -23 5 -26 58
-34 l58 -9 -3 -71 c-3 -70 -3 -71 22 -71 23 0 26 6 36 62 8 45 18 68 35 83
l24 20 -22 19 c-13 11 -23 24 -23 30 0 6 -11 11 -25 11 -14 0 -25 -4 -25 -10z"/>
<path d="M1180 255 c-18 -22 24 -87 54 -83 29 4 32 38 6 71 -24 30 -42 34 -60
12z"/>
</g>
</svg>
