<?xml version="1.0" standalone="no"?>
<!DOCTYPE svg PUBLIC "-//W3C//DTD SVG 20010904//EN"
 "http://www.w3.org/TR/2001/REC-SVG-20010904/DTD/svg10.dtd">
<svg version="1.0" xmlns="http://www.w3.org/2000/svg"
 width="700.000000pt" height="700.000000pt" viewBox="0 0 700.000000 700.000000"
 preserveAspectRatio="xMidYMid meet">
<metadata>
Created by potrace 1.14, written by Peter Selinger 2001-2017
</metadata>
<g transform="translate(0.000000,700.000000) scale(0.100000,-0.100000)"
fill="#000000" stroke="none">
<path d="M3318 6985 c-2 -2 -24 -6 -49 -9 -124 -16 -687 -194 -879 -278 -337
-146 -606 -331 -875 -602 -434 -437 -713 -994 -805 -1606 -32 -211 -34 -604
-4 -854 4 -37 18 -113 50 -266 43 -210 174 -545 301 -770 126 -223 270 -409
467 -605 250 -248 467 -403 781 -555 161 -78 181 -85 485 -190 l225 -78 -1
-43 c0 -40 -5 -85 -19 -182 -9 -67 -26 -194 -31 -237 -2 -25 -8 -79 -13 -120
-4 -41 -7 -120 -6 -175 2 -117 23 -177 77 -218 31 -24 120 -52 203 -63 17 -3
50 -9 75 -14 45 -9 266 -44 350 -54 212 -27 366 -28 432 -3 91 35 141 120 174
294 22 120 21 113 28 158 13 90 16 115 31 270 4 39 9 79 11 90 8 39 7 270 -1
295 -4 14 -16 33 -26 43 -45 42 -8 75 152 132 398 143 759 397 1129 794 136
146 311 404 415 611 117 232 232 600 260 829 4 30 8 62 10 73 13 64 20 210 20
388 -1 251 -12 373 -52 570 -8 41 -17 86 -19 99 -29 151 -133 448 -222 631
-48 99 -168 314 -194 345 -4 5 -25 33 -45 60 -123 167 -410 468 -569 598 -236
192 -562 358 -958 486 -164 53 -419 115 -561 136 -95 14 -338 28 -347 20z
m-366 -649 c16 -37 32 -96 35 -131 6 -63 5 -64 -21 -71 -19 -4 -43 0 -76 16
-93 44 -201 25 -381 -66 -113 -56 -179 -98 -304 -193 -120 -90 -151 -117 -275
-241 -124 -124 -149 -155 -232 -280 -62 -94 -197 -348 -226 -425 -86 -229
-139 -421 -157 -565 -2 -19 -7 -55 -10 -80 -3 -25 -8 -63 -10 -85 -7 -58 -6
-352 0 -405 11 -92 26 -197 30 -221 3 -13 8 -37 10 -54 3 -16 17 -73 30 -125
82 -321 246 -671 377 -808 51 -53 83 -70 145 -79 66 -8 112 -33 188 -102 70
-64 131 -97 203 -111 45 -8 183 -6 230 4 78 17 170 44 342 100 199 65 260 81
260 68 0 -8 -58 -45 -155 -97 -149 -80 -253 -159 -353 -264 -61 -64 -100 -132
-137 -234 -15 -42 -20 -47 -38 -41 -25 8 -132 74 -193 119 -23 16 -54 39 -70
50 -72 51 -257 206 -328 274 -78 76 -210 231 -278 327 -212 300 -395 750 -426
1044 -10 91 -8 755 2 805 3 17 9 46 12 65 3 19 8 45 10 58 3 12 20 75 40 139
103 339 260 643 465 898 140 173 355 367 539 484 47 30 96 61 110 71 87 57
327 166 487 219 107 37 115 33 155 -63z m1602 -97 c334 -167 693 -499 928
-859 181 -276 329 -672 355 -945 10 -105 10 -690 0 -780 -19 -177 -106 -448
-219 -683 -232 -486 -640 -908 -1078 -1116 -217 -103 -500 -206 -565 -206 -17
0 -31 13 -52 48 -72 119 -76 208 -14 283 32 38 48 35 111 -22 118 -106 181
-103 425 16 553 272 937 726 1144 1354 79 237 93 350 92 736 -2 542 -32 682
-231 1090 -198 404 -487 742 -709 829 -74 29 -146 5 -276 -90 -88 -65 -130
-86 -335 -167 -157 -62 -326 -118 -399 -132 -64 -13 -28 18 75 65 202 91 335
183 436 303 55 64 70 91 142 251 42 92 37 91 170 25z m-1722 -256 c37 -33 -13
-122 -79 -143 -84 -27 -318 -170 -450 -276 -212 -171 -407 -438 -521 -716 -68
-163 -132 -432 -150 -623 -9 -103 -9 -412 0 -490 33 -270 113 -511 251 -760
63 -112 91 -169 107 -218 11 -34 10 -40 -7 -52 -51 -39 -128 11 -205 135 -159
253 -258 549 -296 884 -4 33 -7 167 -7 296 1 205 5 290 19 366 2 11 7 39 11
64 11 66 12 71 25 120 7 25 14 52 15 60 9 39 56 174 89 255 114 275 249 479
445 675 135 134 172 164 306 254 135 91 230 143 314 172 67 24 105 23 133 -3z
m1935 -201 c26 -22 82 -75 123 -118 331 -348 494 -676 590 -1189 29 -158 30
-166 34 -430 3 -219 1 -277 -19 -445 -44 -374 -318 -876 -626 -1145 -93 -81
-102 -89 -184 -150 -239 -180 -449 -279 -532 -251 -33 11 -76 79 -136 216 -21
48 -58 193 -62 243 -4 53 19 75 167 159 310 177 541 423 689 732 116 245 160
430 165 691 4 219 -19 364 -85 550 -12 33 -23 65 -25 70 -6 19 -24 60 -59 135
-85 182 -98 228 -83 285 21 73 52 57 138 -73 93 -138 180 -340 209 -484 31
-154 37 -251 35 -523 -2 -154 -6 -293 -9 -310 -49 -252 -169 -511 -335 -720
-143 -180 -347 -347 -544 -446 -103 -51 -128 -74 -128 -117 0 -62 43 -159 82
-186 35 -25 71 -19 151 22 261 135 498 333 663 553 174 231 318 568 356 829
11 81 13 329 4 530 -20 424 -52 562 -198 855 -111 221 -244 394 -410 533 -117
97 -138 146 -87 200 29 32 61 27 116 -16z m-2051 -253 c-3 -21 -9 -46 -15 -56
-13 -24 -85 -92 -142 -135 -26 -19 -53 -40 -60 -47 -8 -6 -25 -21 -39 -32
-167 -136 -292 -305 -394 -529 -31 -70 -84 -268 -101 -380 -19 -130 -25 -401
-12 -550 10 -118 19 -164 68 -364 35 -143 37 -193 8 -230 -30 -39 -52 -33 -81
22 -53 97 -128 365 -143 507 -4 33 -8 71 -11 85 -5 30 -5 312 0 355 22 185 49
315 97 457 93 279 232 507 428 708 142 144 263 239 332 258 46 13 71 -14 65
-69z m44 -231 c-1 -19 -18 -38 -80 -87 -68 -55 -233 -220 -282 -281 -39 -50
-114 -167 -140 -220 -27 -53 -74 -206 -92 -295 -16 -82 -21 -120 -32 -215 -7
-64 -7 -365 0 -397 2 -11 8 -43 11 -70 4 -26 18 -91 30 -143 39 -157 41 -190
10 -190 -15 0 -49 68 -61 125 -1 6 -7 33 -14 60 -14 61 -27 132 -45 250 -14
88 -14 353 0 420 3 17 12 67 20 112 29 154 101 348 179 478 53 88 117 168 218
267 142 141 279 232 278 186z m110 -187 c5 -11 10 -22 10 -25 0 -3 -27 -24
-60 -46 -132 -89 -295 -280 -365 -425 -40 -84 -72 -192 -80 -278 -3 -34 -8
-195 -10 -357 -2 -162 -7 -308 -10 -325 -16 -89 -24 -95 -54 -37 -69 136 -78
564 -16 802 43 166 91 270 186 404 155 217 358 363 399 287z m1824 -528 c14
-49 33 -140 42 -203 17 -124 23 -373 11 -482 -13 -118 -58 -309 -79 -333 -4
-5 -8 -15 -8 -22 0 -35 -102 -216 -179 -318 -71 -93 -199 -226 -300 -309 -70
-59 -78 -61 -116 -35 -37 26 -85 93 -85 120 0 10 29 38 66 65 117 83 265 248
319 354 48 97 101 268 120 390 4 25 9 59 12 75 2 17 6 86 7 155 3 118 -4 184
-35 341 -12 63 -12 67 11 100 25 37 171 189 181 189 3 0 18 -39 33 -87z
m-1217 -194 c97 -37 142 -160 137 -379 -3 -157 -25 -241 -70 -281 -106 -93
-259 -28 -299 128 -15 55 -17 269 -4 361 9 65 31 118 58 140 48 39 122 52 178
31z m67 -3244 c12 -2 44 -7 71 -10 151 -18 334 -55 406 -83 31 -12 47 -51 44
-107 -4 -62 -15 -158 -20 -175 -2 -8 -6 -37 -9 -65 -8 -70 -41 -240 -60 -307
-12 -39 -23 -58 -41 -66 -27 -13 -168 -9 -268 7 -37 6 -79 13 -95 15 -15 2
-49 7 -77 10 -72 10 -205 36 -241 47 -18 5 -34 18 -36 27 -8 29 3 250 17 342
2 14 7 52 11 85 4 33 8 62 9 65 0 3 4 26 8 51 15 88 18 102 33 131 8 16 25 33
37 38 20 9 163 5 211 -5z"/>
<path d="M3770 1043 c-8 -3 -21 -13 -28 -22 -11 -13 -40 -16 -184 -19 -104 -2
-177 -7 -185 -14 -7 -6 -13 -30 -13 -54 0 -65 24 -76 225 -105 110 -15 105
-10 99 -89 -2 -38 -5 -120 -7 -183 -2 -125 5 -147 52 -147 68 0 80 14 101 115
42 211 60 252 142 322 l38 32 -46 38 c-25 21 -55 54 -66 73 -12 19 -28 41 -36
48 -16 12 -64 15 -92 5z"/>
<path d="M3362 740 c-31 -29 -37 -64 -18 -111 45 -113 136 -170 195 -121 47
38 16 148 -60 216 -45 41 -84 47 -117 16z"/>
</g>
</svg>
