<?xml version="1.0" standalone="no"?>
<!DOCTYPE svg PUBLIC "-//W3C//DTD SVG 20010904//EN"
 "http://www.w3.org/TR/2001/REC-SVG-20010904/DTD/svg10.dtd">
<svg version="1.0" xmlns="http://www.w3.org/2000/svg"
 width="700.000000pt" height="700.000000pt" viewBox="0 0 700.000000 700.000000"
 preserveAspectRatio="xMidYMid meet">
<metadata>
Created by potrace 1.14, written by Peter Selinger 2001-2017
</metadata>
<g transform="translate(0.000000,700.000000) scale(0.100000,-0.100000)"
fill="#000000" stroke="none">
<path d="M3290 6980 c-82 -15 -94 -18 -224 -54 -317 -90 -616 -197 -796 -284
-538 -261 -1007 -730 -1287 -1288 -129 -258 -236 -594 -269 -849 -3 -22 -7
-46 -10 -53 -16 -50 -22 -426 -11 -652 9 -160 12 -185 53 -375 2 -11 7 -33 10
-50 28 -158 143 -467 257 -690 120 -236 277 -450 479 -655 254 -259 462 -412
775 -569 179 -90 176 -88 468 -191 138 -49 257 -91 266 -95 13 -5 16 -17 13
-58 -3 -51 -13 -135 -19 -166 -1 -9 -6 -45 -10 -81 -4 -36 -9 -74 -11 -84 -15
-80 -30 -282 -28 -372 5 -191 50 -237 279 -279 50 -10 97 -18 105 -20 289 -55
583 -80 712 -61 123 19 191 138 232 410 4 21 8 48 11 60 5 20 8 48 20 171 4
33 9 74 12 90 3 17 7 109 10 205 l5 175 -26 38 c-14 21 -26 42 -26 47 0 18 54
50 133 80 45 17 90 35 99 40 10 6 23 10 29 10 6 0 53 20 103 44 308 149 540
319 827 605 169 169 261 284 395 496 139 219 267 517 329 765 29 118 46 198
55 260 6 41 13 86 15 99 24 144 24 645 0 781 -2 14 -9 54 -15 90 -7 36 -14 76
-16 90 -3 14 -7 32 -9 40 -2 8 -7 31 -10 50 -23 145 -144 481 -245 680 -155
308 -285 479 -609 798 -200 198 -359 311 -611 438 -253 127 -512 219 -825 294
-125 30 -135 32 -225 49 -112 20 -347 32 -410 21z m-384 -568 c31 -20 84 -171
84 -238 0 -44 -24 -50 -96 -24 -78 27 -149 25 -239 -5 -69 -23 -205 -88 -285
-137 -50 -31 -255 -183 -298 -221 -93 -85 -260 -259 -307 -322 -116 -157 -268
-443 -328 -617 -39 -114 -94 -303 -103 -353 -2 -16 -7 -37 -9 -45 -2 -8 -7
-41 -10 -73 -4 -32 -9 -68 -12 -80 -10 -36 -12 -467 -3 -532 5 -33 11 -80 14
-105 57 -431 318 -1013 502 -1116 11 -6 40 -15 64 -19 66 -11 120 -40 191
-101 35 -31 93 -69 128 -86 58 -27 72 -30 170 -30 134 -1 170 7 421 87 171 54
263 82 294 89 26 6 28 5 16 -8 -7 -9 -23 -22 -36 -29 -189 -101 -332 -198
-417 -282 -83 -82 -121 -137 -163 -233 -18 -41 -36 -78 -41 -83 -26 -26 -386
234 -597 431 -61 57 -213 235 -282 330 -154 211 -343 620 -395 855 -5 22 -12
51 -15 65 -3 14 -9 41 -13 61 -5 20 -10 78 -11 130 -5 156 -1 701 5 745 12 86
27 153 45 204 4 14 16 52 26 85 17 59 75 221 94 260 136 294 210 420 356 600
87 108 173 197 274 285 41 36 77 67 80 70 16 17 139 106 230 165 160 104 349
191 600 278 23 8 54 8 66 -1z m1654 -177 c383 -193 793 -603 1014 -1014 89
-167 201 -449 221 -558 2 -15 9 -43 14 -60 5 -18 8 -33 6 -33 -3 0 0 -12 5
-26 6 -14 13 -74 17 -132 8 -135 8 -654 0 -747 -8 -90 -56 -284 -100 -405
-146 -402 -326 -690 -612 -976 -227 -227 -427 -362 -721 -488 -162 -69 -342
-132 -404 -142 -34 -6 -40 -3 -63 27 -75 99 -89 214 -36 290 29 42 54 42 102
2 129 -109 177 -114 357 -35 537 233 956 675 1169 1232 18 47 37 94 41 105 15
34 58 180 74 247 26 112 31 206 31 563 -1 382 -9 482 -55 652 -43 157 -177
450 -293 642 -138 224 -322 439 -457 531 -168 114 -217 112 -409 -19 -98 -67
-212 -121 -405 -192 -125 -46 -284 -97 -330 -105 -28 -4 -29 -3 -16 10 8 8 76
46 150 83 178 90 238 131 337 231 74 75 90 98 145 210 34 70 68 135 77 145 18
21 28 18 141 -38z m-1718 -273 c11 -42 -42 -104 -112 -132 -44 -18 -206 -110
-285 -163 -171 -115 -304 -241 -425 -404 -182 -245 -289 -495 -356 -827 -30
-147 -37 -234 -37 -456 0 -223 4 -268 37 -435 29 -148 98 -327 212 -555 62
-124 115 -237 118 -252 4 -21 -1 -28 -24 -38 -73 -30 -164 67 -281 300 -105
210 -177 461 -206 715 -14 125 -7 579 11 670 2 11 7 40 11 65 28 177 104 396
206 600 98 194 213 352 372 512 132 132 163 157 307 253 218 146 365 208 421
179 15 -7 29 -22 31 -32z m1902 -166 c50 -30 212 -196 299 -308 126 -163 233
-343 286 -483 13 -33 27 -69 31 -80 69 -163 140 -502 149 -710 14 -317 2 -564
-35 -730 -75 -339 -284 -708 -548 -971 -234 -232 -567 -445 -721 -461 -46 -5
-55 -2 -77 20 -59 59 -152 287 -171 423 -8 53 17 86 108 142 47 29 88 52 91
52 2 0 10 5 17 10 7 6 37 26 67 46 104 69 231 180 320 280 221 246 379 604
407 924 15 160 6 382 -18 489 -6 25 -13 56 -15 67 -8 43 -84 254 -117 325
-100 217 -112 259 -87 320 16 38 31 37 68 -5 147 -168 274 -477 298 -731 8
-76 10 -447 4 -605 -7 -178 -115 -459 -263 -680 -137 -205 -339 -392 -563
-519 -166 -94 -173 -99 -180 -127 -10 -38 14 -121 48 -171 16 -24 32 -43 36
-44 4 0 18 -3 32 -5 65 -12 376 178 534 325 221 208 343 379 475 673 22 50 87
238 95 279 3 13 8 35 11 49 20 83 24 168 20 450 -3 173 -7 342 -10 375 -11
130 -48 314 -82 408 -35 98 -136 312 -172 365 -10 15 -39 59 -65 99 -67 101
-159 206 -258 293 -134 119 -159 169 -104 217 34 29 40 29 90 -1z m-2046 -204
c12 -8 16 -31 13 -85 -1 -34 -70 -104 -221 -227 -185 -149 -293 -286 -395
-495 -70 -145 -125 -357 -141 -540 -6 -73 -6 -408 0 -460 14 -123 19 -148 45
-255 48 -200 54 -235 46 -283 -8 -45 -46 -77 -69 -58 -50 41 -139 327 -171
546 -14 99 -18 427 -5 496 5 24 11 69 15 99 4 30 9 58 11 61 2 3 6 21 9 40 8
48 72 252 102 324 39 94 106 224 155 300 124 193 343 419 493 510 59 35 88 42
113 27z m59 -298 c2 -6 -34 -44 -79 -85 -116 -104 -254 -245 -298 -304 -87
-119 -158 -262 -186 -374 -16 -69 -44 -193 -49 -226 -13 -76 -18 -475 -6 -533
6 -32 13 -71 16 -88 3 -18 15 -76 28 -130 12 -55 23 -110 22 -124 0 -35 -25
-32 -47 6 -19 33 -62 197 -73 278 -3 27 -8 52 -10 55 -16 27 -25 328 -14 442
8 75 11 93 29 184 25 123 104 330 169 440 86 146 277 347 415 437 58 38 76 42
83 22z m113 -183 c5 -11 10 -22 10 -24 0 -3 -28 -25 -62 -50 -164 -118 -320
-311 -386 -477 -54 -136 -59 -181 -67 -565 -8 -371 -13 -419 -41 -408 -40 15
-76 199 -78 413 -6 425 97 709 352 974 127 132 243 190 272 137z m1806 -476
c8 -19 23 -72 33 -117 17 -73 24 -115 37 -233 5 -43 4 -375 0 -405 -58 -355
-162 -563 -410 -814 -212 -215 -227 -223 -284 -171 -21 19 -47 50 -58 71 l-19
36 55 47 c89 76 227 213 264 262 81 109 157 298 182 454 3 22 8 43 10 46 7 13
17 168 17 269 -1 92 -10 188 -28 270 -14 64 -13 98 4 126 18 29 169 194 178
194 2 0 11 -16 19 -35z m-1158 -272 c66 -53 95 -157 94 -334 0 -145 -18 -238
-53 -283 -67 -85 -208 -73 -273 23 -43 64 -50 105 -50 281 0 186 16 264 60
303 62 54 162 58 222 10z m62 -3223 c80 -11 231 -35 275 -44 178 -37 205 -54
208 -128 1 -37 -9 -151 -18 -198 -2 -8 -6 -37 -9 -65 -13 -101 -57 -309 -72
-337 -18 -36 -30 -41 -102 -42 -60 0 -220 12 -231 18 -3 2 -33 7 -66 11 -94
12 -102 13 -147 21 -24 4 -45 8 -48 9 -3 1 -25 5 -50 9 -52 10 -96 30 -102 48
-3 7 -4 40 -2 73 5 107 14 241 18 262 3 11 7 44 11 74 3 30 10 79 15 109 5 30
12 71 15 90 9 53 41 98 73 102 42 5 139 0 232 -12z"/>
<path d="M3750 1029 c-35 -22 -42 -22 -270 -30 -102 -3 -108 -6 -116 -46 -14
-73 36 -103 201 -120 28 -3 66 -11 85 -17 35 -11 35 -12 33 -66 -7 -190 -5
-298 6 -318 8 -16 21 -22 44 -22 59 0 78 26 102 140 35 168 60 223 125 284
l48 45 -36 32 c-19 17 -55 56 -79 85 -37 45 -49 54 -76 54 -18 0 -48 -10 -67
-21z"/>
<path d="M3362 737 c-35 -37 -34 -74 1 -141 39 -73 91 -111 140 -102 66 12 74
87 20 174 -52 83 -120 112 -161 69z"/>
</g>
</svg>
